<svg viewBox="0 0 24 24" fill="currentColor" xmlns="http://www.w3.org/2000/svg">
<path d="M7.00645 15.6442L10.0564 12.6038L12.0564 14.6038L15.8564 10.8193V12.75H17.3564V8.25H12.8564V9.75H14.7872L12.0564 12.4808L10.0564 10.4807L5.9622 14.6L7.00645 15.6442ZM4.9142 20.5C4.40903 20.5 3.98145 20.325 3.63145 19.975C3.28145 19.625 3.10645 19.1974 3.10645 18.6923V5.30775C3.10645 4.80258 3.28145 4.375 3.63145 4.025C3.98145 3.675 4.40903 3.5 4.9142 3.5H18.2987C18.8039 3.5 19.2314 3.675 19.5814 4.025C19.9314 4.375 20.1064 4.80258 20.1064 5.30775V18.6923C20.1064 19.1974 19.9314 19.625 19.5814 19.975C19.2314 20.325 18.8039 20.5 18.2987 20.5H4.9142ZM4.9142 19H18.2987C18.3757 19 18.4462 18.9679 18.5102 18.9038C18.5744 18.8398 18.6064 18.7692 18.6064 18.6923V5.30775C18.6064 5.23075 18.5744 5.16025 18.5102 5.09625C18.4462 5.03208 18.3757 5 18.2987 5H4.9142C4.8372 5 4.7667 5.03208 4.7027 5.09625C4.63853 5.16025 4.60645 5.23075 4.60645 5.30775V18.6923C4.60645 18.7692 4.63853 18.8398 4.7027 18.9038C4.7667 18.9679 4.8372 19 4.9142 19Z" fill="currentColor"></path>
</svg>