<svg viewBox="0 0 24 24" fill="currentColor" xmlns="http://www.w3.org/2000/svg">
<path d="M14.5985 4.9136L13.2003 6.3117L14.261 7.37236L15.6591 5.97426L14.5985 4.9136Z" fill="currentColor"></path>
<path d="M12.5013 7.01075L11.1032 8.40885L12.1639 9.46951L13.562 8.07141L12.5013 7.01075Z" fill="currentColor"></path>
<path d="M10.4041 9.1079L9.00605 10.506L10.0667 11.5667L11.4648 10.1686L10.4041 9.1079Z" fill="currentColor"></path>
<path d="M8.30699 11.2051L6.90889 12.6032L7.96955 13.6638L9.36766 12.2657L8.30699 11.2051Z" fill="currentColor"></path>
<path d="M6.20984 13.3022L4.81174 14.7003L5.8724 15.761L7.2705 14.3629L6.20984 13.3022Z" fill="currentColor"></path>
<path d="M16.6142 9.72552L18.0123 8.32742L19.0729 9.38808L17.6748 10.7862L16.6142 9.72552Z" fill="currentColor"></path>
<path d="M14.517 11.8227L15.9151 10.4246L16.9758 11.4852L15.5777 12.8833L14.517 11.8227Z" fill="currentColor"></path>
<path d="M12.4199 13.9198L13.818 12.5217L14.8786 13.5824L13.4805 14.9805L12.4199 13.9198Z" fill="currentColor"></path>
<path d="M10.3227 16.017L11.7208 14.6189L12.7815 15.6795L11.3834 17.0776L10.3227 16.017Z" fill="currentColor"></path>
<path d="M8.22557 18.1141L9.62367 16.716L10.6843 17.7767L9.28623 19.1748L8.22557 18.1141Z" fill="currentColor"></path>
<path fill-rule="evenodd" clip-rule="evenodd" d="M18.7175 18.7175C15.7894 21.6456 11.4255 22.2627 7.89218 20.5688L7.88813 20.5729L7.87658 20.5613C6.93892 20.1097 6.06007 19.4951 5.28249 18.7175C4.5049 17.9399 3.89029 17.0611 3.43866 16.1234L3.41364 16.0984L3.42245 16.0896C1.73942 12.5595 2.35943 8.20554 5.28249 5.28249C8.99247 1.5725 15.0075 1.5725 18.7175 5.28249C22.4275 8.99247 22.4275 15.0075 18.7175 18.7175ZM17.0956 5.83203C13.9528 3.22942 9.2865 3.39979 6.34315 6.34315C3.39979 9.2865 3.22942 13.9528 5.83203 17.0956L17.0956 5.83203ZM17.6569 17.6569C14.7095 20.6042 10.0345 20.771 6.89159 18.1573L18.1573 6.8916C20.771 10.0345 20.6042 14.7095 17.6569 17.6569Z" fill="currentColor"></path>
</svg>