<svg viewBox="0 0 24 24" fill="currentColor" xmlns="http://www.w3.org/2000/svg">
<path d="M12 2C6.48129 2 2 6.48129 2 12C2 17.5187 6.48129 22 12 22C17.5187 22 22 17.5187 22 12C22 6.48129 17.5187 2 12 2ZM12 2.68984C13.0886 2.68984 14.1329 2.87744 15.1035 3.22039V4.19158L12 6.05315L8.89654 4.19158V3.22039C9.86714 2.87802 10.9114 2.68984 12 2.68984ZM8.20704 3.49677V4.20903L5.76337 5.98564L5.08462 5.76429C5.94958 4.80501 7.01127 4.02906 8.2067 3.49584L8.20704 3.49677ZM15.793 3.49677C16.9887 4.02998 18.0504 4.80559 18.9154 5.76487L18.2351 5.98657L15.793 4.21134V3.49677ZM8.56919 4.79935L11.6553 6.65109V8.14104L8.60144 10.3565L7.01335 9.9973L6.21081 6.51262L8.56919 4.79935ZM15.4293 4.79935L17.788 6.51262L16.9851 9.99845L15.3986 10.3554L12.3447 8.14255V6.64994L15.4293 4.79935ZM4.60909 6.336L5.53172 6.63491L6.34282 10.1627L3.61363 12.5389L2.69631 12.24C2.69423 12.1592 2.68891 12.0808 2.68891 12C2.68891 9.86772 3.40476 7.90489 4.60851 6.336H4.60909ZM19.3909 6.336C20.5947 7.90489 21.3102 9.86772 21.3102 12C21.3102 12.0808 21.3052 12.1589 21.3031 12.24L20.3858 12.5389L17.6555 10.1627L18.4677 6.63491L19.3909 6.336ZM12 8.74442L14.9147 10.8581L13.8024 14.2794H10.1976L9.08379 10.8581L12 8.74442ZM6.81951 10.661L8.41152 11.0197L9.5673 14.5753L8.56387 16.1259L4.99169 15.8108L4.09067 13.0372L6.81951 10.661ZM17.179 10.661L19.9082 13.036L19.0068 15.8108L15.4346 16.1259L14.4312 14.5753L15.5885 11.0197L17.179 10.661ZM2.7422 12.9807L3.41956 13.2022L4.35167 16.0729L3.93266 16.6509C3.29761 15.55 2.88068 14.3081 2.74185 12.9816L2.7422 12.9807ZM21.2578 12.9807C21.1191 14.3075 20.7015 15.5492 20.0656 16.6499L19.6466 16.0735L20.5787 13.2014L21.2578 12.9807ZM10.1343 14.9688H13.8657L14.8703 16.5206L13.4574 19.8422H10.5426L9.12968 16.5206L10.1343 14.9688ZM4.89876 16.4937L8.50318 16.8118L9.92031 20.1426L9.35069 20.9268C7.28556 20.3156 5.52225 19.0095 4.32913 17.2778L4.89876 16.4937ZM19.1001 16.4937L19.6694 17.279C18.4763 19.0104 16.7139 20.3171 14.6493 20.9279L14.0782 20.1426L15.4953 16.8118L19.1001 16.4937ZM10.4899 20.5319H13.5086L13.9291 21.1098C13.3067 21.2401 12.662 21.3105 12.0003 21.3105C11.3384 21.3105 10.6927 21.2401 10.0701 21.1098L10.4899 20.5319Z" fill="currentColor"></path>
</svg>