<svg viewBox="0 0 24 24" fill="currentColor" xmlns="http://www.w3.org/2000/svg">
<path d="M16.1143 13.701C17.9597 13.7012 19.4561 15.1551 19.4561 16.949C19.456 18.743 17.9597 20.1969 16.1143 20.1971C14.2687 20.1971 12.7725 18.7431 12.7725 16.949C12.7725 15.155 14.2686 13.701 16.1143 13.701ZM21 5.69904C20.9836 5.71611 14.057 12.9478 11.7451 15.1951C9.43077 17.4448 8.14664 18.6959 6.60254 18.6961C4.79434 18.6961 3.00024 17.3921 3 15.1951C3 13.1952 4.03026 12.6954 4.54395 12.6951C5.78072 12.6951 5.57133 13.6968 5.57129 14.1961C5.57129 14.6988 5.57151 15.6971 6.59863 15.6971C7.62569 15.697 8.37825 14.4638 10.1973 12.699L19.0732 3.80255L21 5.69904Z" fill="currentColor"></path>
</svg>