<svg viewBox="0 0 24 24" fill="currentColor" xmlns="http://www.w3.org/2000/svg">
<path d="M16.6001 4.59614C16.0886 4.59614 15.653 4.41634 15.2934 4.05674C14.9338 3.69713 14.754 3.26155 14.754 2.75002C14.754 2.23848 14.9338 1.80291 15.2934 1.44329C15.653 1.08368 16.0886 0.90387 16.6001 0.90387C17.1117 0.90387 17.5472 1.08368 17.9068 1.44329C18.2665 1.80291 18.4463 2.23848 18.4463 2.75002C18.4463 3.26155 18.2665 3.69713 17.9068 4.05674C17.5472 4.41634 17.1117 4.59614 16.6001 4.59614ZM11.177 8.63462C10.6655 8.63462 10.2299 8.45481 9.87029 8.09519C9.51068 7.73558 9.33087 7.3 9.33087 6.78847C9.33087 6.27694 9.51068 5.84136 9.87029 5.48174C10.2299 5.12214 10.6655 4.94234 11.177 4.94234C11.6886 4.94234 12.1241 5.12214 12.4837 5.48174C12.8434 5.84136 13.0232 6.27694 13.0232 6.78847C13.0232 7.3 12.8434 7.73558 12.4837 8.09519C12.1241 8.45481 11.6886 8.63462 11.177 8.63462ZM1.37702 21.6538L0.323242 20.6L3.91554 17.0077L2.38092 12.8923L6.50012 8.77309C6.67448 8.59873 6.86231 8.46795 7.06359 8.38077C7.26486 8.2936 7.49113 8.25002 7.74242 8.25002C7.9937 8.25002 8.21998 8.2936 8.42127 8.38077C8.62253 8.46795 8.81035 8.59873 8.98472 8.77309L11.0039 10.7231C11.4604 11.1731 12.004 11.5289 12.6347 11.7904C13.2655 12.0519 13.9463 12.1987 14.677 12.2308V13.7307C13.7604 13.6987 12.9007 13.5259 12.0982 13.2125C11.2956 12.899 10.6129 12.4641 10.0501 11.9077L9.17704 11.0538L6.48087 13.75L8.67702 15.9961V21.75H7.17707V16.6346L5.37702 14.973V17.6538L1.37702 21.6538ZM15.1771 21.75V15.1154L17.3155 13.0769L16.5617 8.92302C16.1834 9.38329 15.7802 9.7958 15.352 10.1606C14.9238 10.5253 14.4449 10.8109 13.9154 11.0173C13.5193 10.984 13.1395 10.8914 12.776 10.7394C12.4126 10.5875 12.1027 10.3866 11.8463 10.1366C12.6091 10.0096 13.3133 9.72181 13.9588 9.27309C14.6043 8.82436 15.104 8.31154 15.4578 7.73462L16.4386 6.13462C16.6899 5.7295 17.0351 5.46059 17.4742 5.32789C17.9132 5.19521 18.3488 5.21925 18.7809 5.40002L23.677 7.47309V11.75H22.1771V8.44614L19.8001 7.49612L22.6193 21.75H21.0194L19.1905 14.0865L16.677 16.2115V21.75H15.1771Z" fill="currentColor"></path>
</svg>