<svg viewBox="0 0 24 24" fill="currentColor" xmlns="http://www.w3.org/2000/svg">
<path d="M12.02 19.6152C12.2708 19.6152 12.4808 19.5304 12.65 19.3608C12.8192 19.1911 12.9038 18.9808 12.9038 18.73C12.9038 18.4792 12.8189 18.2692 12.6493 18.1C12.4796 17.9308 12.2693 17.8463 12.0185 17.8463C11.7677 17.8463 11.5577 17.9311 11.3885 18.1008C11.2193 18.2704 11.1348 18.4807 11.1348 18.7315C11.1348 18.9823 11.2196 19.1923 11.3893 19.3615C11.5589 19.5307 11.7692 19.6152 12.02 19.6152ZM5.5 22.5V1.5H18.5385V6.4655H19.5V10.7078H18.5385V22.5H5.5ZM7 21H17.0385V3H7V21Z" fill="currentColor"></path>
</svg>