<svg viewBox="0 0 24 24" fill="currentColor" xmlns="http://www.w3.org/2000/svg">
<path d="M9.39615 18.9115L5.08845 14.6038C5.0128 15.25 4.98427 15.9644 5.00285 16.7471C5.02145 17.5298 5.08716 18.1974 5.19998 18.75C5.62178 18.8795 6.26986 18.9593 7.14422 18.9894C8.01859 19.0195 8.76923 18.9936 9.39615 18.9115ZM11.2 18.6077C12.1897 18.4166 13.1115 18.1099 13.9654 17.6875C14.8192 17.265 15.5474 16.7525 16.15 16.15C16.7295 15.5705 17.2304 14.8596 17.6529 14.0173C18.0753 13.175 18.3936 12.2525 18.6077 11.25L12.75 5.39228C11.8 5.59356 10.9048 5.91118 10.0644 6.34515C9.22402 6.77913 8.51216 7.28779 7.92882 7.87113C7.34549 8.45446 6.83683 9.16889 6.40285 10.0144C5.96888 10.8599 5.63203 11.7885 5.39227 12.8L11.2 18.6077ZM9.89998 15.1538L8.84615 14.1L14.1 8.84615L15.1538 9.89998L9.89998 15.1538ZM18.9115 9.44615C18.9974 8.75768 19.0311 8.01858 19.0125 7.22883C18.9939 6.43908 18.9231 5.77946 18.8 5.24998C18.3782 5.11023 17.7301 5.02529 16.8557 4.99518C15.9814 4.96504 15.2307 4.99613 14.6038 5.08845L18.9115 9.44615ZM7.83653 20.5C6.95704 20.5 6.14487 20.4387 5.4 20.3163C4.65513 20.1938 4.20706 20.057 4.05577 19.9057C3.91091 19.7442 3.78207 19.2987 3.66925 18.5692C3.55642 17.8397 3.5 17.0493 3.5 16.1981C3.5 14.2724 3.78878 12.491 4.36635 10.8538C4.94392 9.21666 5.76026 7.87051 6.81538 6.81538C7.87051 5.76026 9.22596 4.94392 10.8817 4.36635C12.5375 3.78878 14.3365 3.5 16.2788 3.5C17.1493 3.5 17.9304 3.55802 18.6221 3.67405C19.3137 3.79007 19.7384 3.92372 19.8961 4.075C20.0666 4.24295 20.2099 4.68686 20.3259 5.40673C20.4419 6.12659 20.5 6.92883 20.5 7.81343C20.5 9.74419 20.2128 11.5298 19.6384 13.1702C19.0641 14.8105 18.2525 16.1551 17.2038 17.2038C16.1653 18.2423 14.8214 19.0512 13.1721 19.6307C11.5227 20.2102 9.74421 20.5 7.83653 20.5Z" fill="currentColor"></path>
</svg>