<svg viewBox="0 0 24 24" fill="currentColor" xmlns="http://www.w3.org/2000/svg">
<path d="M3.73086 6.99999V3.30772L7.42313 5.15384L3.73086 6.99999ZM17.5769 6.99999V3.30772L21.2692 5.15384L17.5769 6.99999ZM11.1154 6.07692V2.38464L14.8077 4.23077L11.1154 6.07692ZM10.75 21.6442C9.54104 21.6044 8.43079 21.5035 7.41926 21.3413C6.40772 21.1791 5.53305 20.9759 4.79523 20.7317C4.05742 20.4875 3.48082 20.208 3.06543 19.8932C2.65007 19.5785 2.44238 19.2487 2.44238 18.9038V10.2885C2.44238 9.90387 2.68725 9.54682 3.17698 9.21732C3.66673 8.88784 4.33917 8.59842 5.19428 8.34907C6.04942 8.0997 7.05967 7.90227 8.22503 7.75677C9.39042 7.61125 10.6488 7.53849 12 7.53849C13.3513 7.53849 14.6097 7.61125 15.775 7.75677C16.9404 7.90227 17.9507 8.0997 18.8058 8.34907C19.6609 8.59842 20.3333 8.88784 20.8231 9.21732C21.3128 9.54682 21.5577 9.90387 21.5577 10.2885V18.9038C21.5577 19.2487 21.35 19.5785 20.9346 19.8932C20.5192 20.208 19.9426 20.4875 19.2048 20.7317C18.467 20.9759 17.5923 21.1791 16.5808 21.3413C15.5693 21.5035 14.459 21.6044 13.2501 21.6442V17.6538H10.75V21.6442ZM12 11.5385C13.6359 11.5385 15.1087 11.425 16.4183 11.1981C17.7279 10.9712 18.736 10.6878 19.4424 10.3481C19.3334 10.1301 18.6183 9.85737 17.2972 9.52982C15.976 9.20225 14.2103 9.03847 12 9.03847C9.78977 9.03847 8.02406 9.20225 6.70291 9.52982C5.38174 9.85737 4.66667 10.1301 4.55768 10.3481C5.2641 10.6878 6.23526 10.9712 7.47116 11.1981C8.70706 11.425 10.2167 11.5385 12 11.5385ZM9.25006 20.0327V16.1538H14.75V20.0327C16.2051 19.9058 17.385 19.7035 18.2895 19.426C19.1939 19.1484 19.7834 18.8872 20.0577 18.6423V11.7231C19.0513 12.1603 17.8661 12.4888 16.502 12.7086C15.1379 12.9285 13.6372 13.0385 12 13.0385C10.3629 13.0385 8.86221 12.9285 7.49811 12.7086C6.13401 12.4888 4.94875 12.1603 3.94233 11.7231V18.6423C4.2167 18.8872 4.78689 19.1484 5.65291 19.426C6.51894 19.7035 7.71799 19.9058 9.25006 20.0327Z" fill="currentColor"></path>
</svg>