<svg viewBox="0 0 24 24" fill="currentColor" xmlns="http://www.w3.org/2000/svg">
<path d="M10.5 18.8025V16.8025H4.30775C3.80258 16.8025 3.375 16.6275 3.025 16.2775C2.675 15.9275 2.5 15.4999 2.5 14.9947V5.11024C2.5 4.60507 2.675 4.17749 3.025 3.82749C3.375 3.47749 3.80258 3.30249 4.30775 3.30249H19.6923C20.1974 3.30249 20.625 3.47749 20.975 3.82749C21.325 4.17749 21.5 4.60507 21.5 5.11024V14.9947C21.5 15.4999 21.325 15.9275 20.975 16.2775C20.625 16.6275 20.1974 16.8025 19.6923 16.8025H13.5V18.8025H14.75C14.9628 18.8025 15.141 18.8743 15.2845 19.018C15.4282 19.1615 15.5 19.3397 15.5 19.5525C15.5 19.7653 15.4282 19.9435 15.2845 20.087C15.141 20.2307 14.9628 20.3025 14.75 20.3025H9.25C9.03717 20.3025 8.859 20.2307 8.7155 20.087C8.57183 19.9435 8.5 19.7653 8.5 19.5525C8.5 19.3397 8.57183 19.1615 8.7155 19.018C8.859 18.8743 9.03717 18.8025 9.25 18.8025H10.5ZM4.30775 15.3025H19.6923C19.7693 15.3025 19.8398 15.2705 19.9038 15.2065C19.9679 15.1423 20 15.0717 20 14.9947V5.11024C20 5.03324 19.9679 4.96274 19.9038 4.89874C19.8398 4.83457 19.7693 4.80249 19.6923 4.80249H4.30775C4.23075 4.80249 4.16025 4.83457 4.09625 4.89874C4.03208 4.96274 4 5.03324 4 5.11024V14.9947C4 15.0717 4.03208 15.1423 4.09625 15.2065C4.16025 15.2705 4.23075 15.3025 4.30775 15.3025Z" fill="currentColor"></path>
</svg>