<svg viewBox="0 0 24 24" fill="currentColor" xmlns="http://www.w3.org/2000/svg">
<path d="M1.5791 19.0789V16.8556C1.5791 16.3403 1.7121 15.8804 1.9781 15.4759C2.2441 15.0714 2.59935 14.7567 3.04385 14.5319C3.99419 14.067 4.94977 13.7086 5.9106 13.4566C6.8716 13.2048 7.92769 13.0789 9.07885 13.0789C10.2302 13.0789 11.2863 13.2048 12.2471 13.4566C13.2081 13.7086 14.1638 14.067 15.1141 14.5319C15.5586 14.7567 15.9139 15.0714 16.1799 15.4759C16.4459 15.8804 16.5789 16.3403 16.5789 16.8556V19.0789H1.5791ZM18.5789 19.0789V16.7326C18.5789 16.0763 18.4182 15.4507 18.0969 14.8559C17.7754 14.2612 17.3194 13.751 16.7289 13.3251C17.3994 13.4251 18.0359 13.5799 18.6386 13.7894C19.2411 13.999 19.8161 14.2468 20.3636 14.5326C20.8803 14.8083 21.2793 15.1332 21.5606 15.5074C21.8419 15.8814 21.9826 16.2898 21.9826 16.7326V19.0789H18.5789ZM9.07885 11.4634C8.11635 11.4634 7.29244 11.1207 6.6071 10.4354C5.92177 9.74988 5.5791 8.92588 5.5791 7.96338C5.5791 7.00088 5.92177 6.17696 6.6071 5.49163C7.29244 4.80613 8.11635 4.46338 9.07885 4.46338C10.0414 4.46338 10.8654 4.80613 11.5509 5.49163C12.2362 6.17696 12.5789 7.00088 12.5789 7.96338C12.5789 8.92588 12.2362 9.74988 11.5509 10.4354C10.8654 11.1207 10.0414 11.4634 9.07885 11.4634ZM17.7134 7.96338C17.7134 8.92588 17.3707 9.74988 16.6854 10.4354C16 11.1207 15.1761 11.4634 14.2136 11.4634C14.1008 11.4634 13.9572 11.4505 13.7829 11.4249C13.6084 11.3992 13.4648 11.371 13.3521 11.3404C13.7464 10.8662 14.0495 10.3402 14.2614 9.76238C14.473 9.18455 14.5789 8.58455 14.5789 7.96238C14.5789 7.34005 14.4709 6.7423 14.2549 6.16913C14.0389 5.59613 13.7379 5.06863 13.3521 4.58663C13.4956 4.5353 13.6392 4.50196 13.7829 4.48663C13.9264 4.47113 14.0699 4.46338 14.2136 4.46338C15.1761 4.46338 16 4.80613 16.6854 5.49163C17.3707 6.17696 17.7134 7.00088 17.7134 7.96338ZM3.07885 17.5789H15.0789V16.8556C15.0789 16.6468 15.0266 16.461 14.9221 16.2981C14.8178 16.1353 14.6521 15.993 14.4251 15.8711C13.6021 15.4468 12.7547 15.1253 11.8829 14.9066C11.011 14.6881 10.0764 14.5789 9.07885 14.5789C8.08152 14.5789 7.14693 14.6881 6.2751 14.9066C5.40327 15.1253 4.55585 15.4468 3.73285 15.8711C3.50585 15.993 3.3401 16.1353 3.2356 16.2981C3.1311 16.461 3.07885 16.6468 3.07885 16.8556V17.5789ZM9.07885 9.96338C9.62885 9.96338 10.0997 9.76755 10.4914 9.37588C10.883 8.98421 11.0789 8.51338 11.0789 7.96338C11.0789 7.41338 10.883 6.94255 10.4914 6.55088C10.0997 6.15921 9.62885 5.96338 9.07885 5.96338C8.52885 5.96338 8.05802 6.15921 7.66635 6.55088C7.27469 6.94255 7.07885 7.41338 7.07885 7.96338C7.07885 8.51338 7.27469 8.98421 7.66635 9.37588C8.05802 9.76755 8.52885 9.96338 9.07885 9.96338Z" fill="currentColor"></path>
</svg>