<svg viewBox="0 0 24 24" fill="currentColor" xmlns="http://www.w3.org/2000/svg">
<path d="M19.6654 9.83463C19.2 8.24359 18.3423 6.9173 17.0923 5.85575C15.8423 4.7942 14.3948 4.18587 12.75 4.03075V5.7846L19.6654 9.83463ZM7.74995 13.5923L11.25 11.5538V4.03075C10.6205 4.09357 10.0125 4.22883 9.42593 4.43653C8.83939 4.64421 8.28073 4.91664 7.74995 5.25383V13.5923ZM4.74612 15.3308L6.25 14.4538V6.48073C5.51025 7.21406 4.95031 8.05797 4.57018 9.01245C4.19004 9.96695 3.99998 10.964 3.99998 12.0036C3.99998 12.5771 4.05895 13.1462 4.1769 13.7108C4.29485 14.2754 4.48459 14.8154 4.74612 15.3308ZM8.25 19.0538L15.5 14.9L12 12.8615L5.49613 16.6384C5.85509 17.1512 6.26311 17.6163 6.72018 18.0336C7.17723 18.4509 7.68717 18.791 8.25 19.0538ZM12 20C13.2949 20 14.5151 19.699 15.6606 19.0971C16.8061 18.4952 17.7538 17.6654 18.5038 16.6077L17 15.7615L10.0538 19.7538C10.3653 19.8487 10.6854 19.9134 11.0141 19.9481C11.3427 19.9827 11.6713 20 12 20ZM19.2538 15.3308C19.5282 14.7705 19.7275 14.1862 19.8519 13.5779C19.9763 12.9695 20.0192 12.3538 19.9808 11.7307L12.75 7.50763V11.5538L19.2538 15.3308ZM12.0016 21.5C10.6877 21.5 9.45268 21.2506 8.29655 20.752C7.1404 20.2533 6.13472 19.5765 5.2795 18.7217C4.42427 17.8669 3.74721 16.8616 3.24833 15.706C2.74944 14.5504 2.5 13.3156 2.5 12.0017C2.5 10.6877 2.74933 9.45268 3.248 8.29655C3.74667 7.1404 4.42342 6.13472 5.27825 5.2795C6.1331 4.42427 7.13834 3.74721 8.29398 3.24833C9.44959 2.74944 10.6844 2.5 11.9983 2.5C13.3122 2.5 14.5473 2.74933 15.7034 3.248C16.8596 3.74667 17.8652 4.42342 18.7205 5.27825C19.5757 6.1331 20.2527 7.13834 20.7516 8.29398C21.2505 9.44959 21.5 10.6844 21.5 11.9983C21.5 13.3122 21.2506 14.5473 20.752 15.7034C20.2533 16.8596 19.5765 17.8652 18.7217 18.7205C17.8669 19.5757 16.8616 20.2527 15.706 20.7516C14.5504 21.2505 13.3156 21.5 12.0016 21.5Z" fill="currentColor"></path>
</svg>